<svg id="_x33_0" enable-background="new 0 0 64 64" height="512" viewBox="0 0 64 64" width="512" xmlns="http://www.w3.org/2000/svg"><g><g><g><path d="m54.913 48h8.087v10 2h-62v-12h32.348z" fill="#d3a06c"/></g><g><path d="m16 13v16.34 1.66c0 .55-.45 1-1 1h-.81-2.19v2.76c0 .69-.55 1.24-1.24 1.24-.46 0-.89-.26-1.1-.68l-1.66-3.32h-5c-.55 0-1-.45-1-1v-18c0-.55.45-1 1-1h12c.55 0 1 .45 1 1z" fill="#e6e9ed"/></g><g><path d="m62 42.24c0 1.13-.45 2.21-1.24 3l-.76.76-6-6 .76-.76c.79-.79 1.87-1.24 3-1.24 1.17 0 2.23.48 3 1.24.76.77 1.24 1.83 1.24 3z" fill="#aab2bd"/></g><g><path d="m49 57-3.75 1.25-3.5-3.5 1.25-3.75 3 3z" fill="#aab2bd"/></g><g><path d="m45.25 58.25-5.25 1.75 1.75-5.25z" fill="#aab2bd"/></g><g><path d="m60 46-2 2-1 1-3-3-3-3 3-3z" fill="#ffeaa7"/></g><g><path d="m45.843 49.379h11.314v4.243h-11.314z" fill="#fcd770" transform="matrix(.707 -.707 .707 .707 -21.332 51.5)"/></g><g><path d="m51 43 3 3-8 8-3-3 3-3 4.99-4.99z" fill="#ff826e"/></g><g><path d="m21 48h-8v-4.62c0-3.05 1.53-5.79 3.92-7.43.97-.67 2.09-1.16 3.31-1.4l3.68-.73 3.09 6.18 3 6h-5c-.55 0-1 .45-1 1v1z" fill="#b4dd7f"/></g><g><path d="m43 48h-3v-1c0-.55-.45-1-1-1h-5l3-6 3.09-6.18 3.68.73c1.22.24 2.34.73 3.31 1.4 2.29 1.57 3.79 4.16 3.91 7.06l-4.99 4.99z" fill="#b4dd7f"/></g><g><path d="m40 60v1c0 .55-.45 1-1 1h-14c-.55 0-1-.45-1-1v-1-2h16z" fill="#aab2bd"/></g><g><path d="m24 58v-10-1c0-.55.45-1 1-1h5 4 5c.55 0 1 .45 1 1v1 10z" fill="#e6e9ed"/></g><g><path d="m37 40-3 6h-4l-3-6z" fill="#ffeaa7"/></g><g><path d="m50 30v.39c0 2.23-1.09 4.3-2.92 5.56-.97-.67-2.09-1.16-3.31-1.4l-3.68-.73-1.48-.3c-1.58-.31-2.82-1.55-3.13-3.13l-.22-1.08c2.2-.98 3.88-2.93 4.49-5.31h1.25c.8 0 1.53-.32 2.06-.82l.33.98c.99 2.99 3.52 5.22 6.61 5.84z" fill="#b27946"/></g><g><path d="m28.55 13.09-1.33.27c-1.43.28-2.56 1.31-3.01 2.64h-1.21c-.32 0-.63.05-.92.15v-.01l.11-1.18c.23-2.54 1.41-4.78 3.17-6.38 1.75-1.61 4.09-2.58 6.64-2.58 5.1 0 9.35 3.89 9.81 8.96l.11 1.18v.01c-.29-.1-.6-.15-.92-.15h-1.17-.01c-.4-1.17-1.51-2-2.82-2h-6.53c-.68 0-1.3-.28-1.75-.72-.06-.06-.11-.12-.17-.19z" fill="#b27946"/></g><g><path d="m22.08 16.14v.01c-.43.14-.82.37-1.14.67l-.41-1.23c-.35-1.05-.53-2.16-.53-3.27 0-2.85 1.16-5.43 3.02-7.3 1.87-1.86 4.45-3.02 7.3-3.02h3.36c5.7 0 10.32 4.62 10.32 10.32 0 1.11-.18 2.22-.53 3.27l-.41 1.23c-.32-.3-.71-.54-1.14-.67v-.01l-.11-1.18c-.46-5.07-4.71-8.96-9.81-8.96-2.55 0-4.89.97-6.64 2.58-1.76 1.6-2.94 3.84-3.17 6.38z" fill="#b27946"/></g><g><path d="m22 29v-5.17-.01c.31.12.65.18 1 .18h1.25c.37 1.41 1.1 2.66 2.09 3.66.36.36.76.69 4.05 2.18l-.03.19c-.12-.02-.24-.03-.36-.03h-2c-1.1 0-2 .9-2 2h-1c-1.66 0-3-1.34-3-3z" fill="#b27946"/></g><g><path d="m22 23.83v5.17c0 1.66 1.34 3 3 3h1c0 .44.14.85.39 1.18-.32.16-.65.27-1 .34l-1.48.3-3.68.73c-1.22.24-2.34.73-3.31 1.4-1.38-.95-2.34-2.36-2.73-3.95h.81c.55 0 1-.45 1-1v-1.66c2.16-1.01 3.84-2.86 4.61-5.18l.33-.98c.3.28.66.51 1.06.64z" fill="#b27946"/></g><g><path d="m30.39 29.84 1.61.16c1.16 0 2.26-.25 3.26-.69l.22 1.08c.31 1.58 1.55 2.82 3.13 3.13l1.48.3-3.09 6.18h-10l-3.09-6.18 1.48-.3c.35-.07.68-.18 1-.34l.2.23c.36.37.86.59 1.41.59h2c1.1 0 2-.9 2-2 0-.55-.22-1.05-.59-1.41-.28-.29-.64-.48-1.05-.56z" fill="#f0d0b4"/></g><g><path d="m32 30-1.61-.16c-3.29-1.49-3.69-1.82-4.05-2.18-.99-1-1.72-2.25-2.09-3.66-.16-.64-.25-1.31-.25-2v-4.72c0-.45.07-.88.21-1.28.45-1.33 1.58-2.36 3.01-2.64l1.33-.27c.06.07.11.13.17.19.45.44 1.07.72 1.75.72h6.53c1.31 0 2.42.83 2.82 2 .12.31.18.65.18 1v5c0 .69-.09 1.36-.25 2-.61 2.38-2.29 4.33-4.49 5.31-1 .44-2.1.69-3.26.69z" fill="#f0d0b4"/></g><g><path d="m41 16c.32 0 .63.05.92.15.43.13.82.37 1.14.67.58.55.94 1.32.94 2.18v2c0 .86-.36 1.63-.94 2.18-.53.5-1.26.82-2.06.82h-1.25c.16-.64.25-1.31.25-2v-5c0-.35-.06-.69-.18-1h.01z" fill="#aab2bd"/></g><g><path d="m24.25 24h-1.25c-.35 0-.69-.06-1-.18-.4-.13-.76-.36-1.06-.64-.58-.55-.94-1.32-.94-2.18v-2c0-.86.36-1.63.94-2.18.32-.3.71-.53 1.14-.67.29-.1.6-.15.92-.15h1.21c-.14.4-.21.83-.21 1.28v4.72c0 .69.09 1.36.25 2z" fill="#aab2bd"/></g><g><path d="m31.41 30.59c.37.36.59.86.59 1.41 0 1.1-.9 2-2 2h-2c-.55 0-1.05-.22-1.41-.59l-.2-.23c-.25-.33-.39-.74-.39-1.18 0-1.1.9-2 2-2h2c.12 0 .24.01.36.03.41.08.77.27 1.05.56z" fill="#aab2bd"/></g></g><g><path d="m34 23.764c-.381.762-1.147 1.236-2 1.236s-1.619-.474-2-1.236l-.105-.211-1.789.895.105.211c.722 1.444 2.174 2.341 3.789 2.341s3.067-.897 3.789-2.342l.105-.211-1.789-.895z"/><path d="m27 49h10v2h-10z"/><path d="m27 53h10v2h-10z"/><path d="m5 27h8v2h-8z"/><path d="m5 23h8v2h-8z"/><path d="m5 19h8v2h-8z"/><path d="m5 15h2v2h-2z"/><path d="m9 15h4v2h-4z"/><path d="m47 17h2v2h-2z"/><path d="m51 17h2v2h-2z"/><path d="m55 17h2v2h-2z"/><path d="m61.465 45.949c.99-.99 1.535-2.307 1.535-3.707 0-2.89-2.352-5.242-5.242-5.242-1.4 0-2.717.545-3.707 1.535l-2.368 2.368c-.494-1.95-1.557-3.676-3.023-4.983 1.477-1.443 2.34-3.423 2.34-5.525v-1.215l-.804-.16c-2.733-.547-4.979-2.528-5.859-5.173l-.151-.454c.504-.669.814-1.492.814-2.393v-2c0-.901-.31-1.724-.815-2.393l.233-.7c.387-1.156.582-2.362.582-3.583 0-6.244-5.08-11.324-11.324-11.324h-3.352c-6.244 0-11.324 5.08-11.324 11.324 0 1.221.195 2.427.581 3.581l.233.701c-.504.67-.814 1.493-.814 2.394v2c0 .901.31 1.724.815 2.393l-.151.453c-.495 1.484-1.436 2.78-2.664 3.721v-14.567c0-1.103-.897-2-2-2h-12c-1.103 0-2 .897-2 2v18c0 1.103.897 2 2 2h4.382l1.383 2.765c.381.761 1.147 1.235 1.999 1.235 1.233 0 2.236-1.003 2.236-2.236v-1.764h.455c.398 1.112 1.042 2.113 1.885 2.934-2.062 1.85-3.34 4.527-3.34 7.444v3.622h-11v2h22v10h-22v2h22c0 1.103.897 2 2 2h14c1.103 0 2-.897 2-2h22v-2h-16.839l3.155-1.052c.147-.049.281-.132.391-.241l8.707-8.707h4.586v-2h-2.586zm-18.465-24.949c0 1.103-.897 2-2 2h-.059c.037-.329.059-.662.059-1v-5c1.103 0 2 .897 2 2zm-2.556-6c-.694-1.19-1.97-2-3.444-2h-6.529c-.393 0-.763-.153-1.04-.432-.279-.277-.431-.647-.431-1.041.001-.562.313-1.065.813-1.316l.634-.316-.893-1.789-.635.316c-1.183.592-1.918 1.782-1.919 3.105 0 .284.033.563.1.833l-.08.016c-1.529.306-2.77 1.306-3.451 2.624h-.379c.442-4.565 4.219-8 8.811-8s8.369 3.435 8.811 8zm-8.444 14c-3.859 0-7-3.141-7-7v-4.721c0-1.426 1.015-2.663 2.412-2.942l.812-.162c.627.534 1.415.825 2.247.825h6.529c1.103 0 2 .897 2 2v5c0 3.859-3.141 7-7 7zm-1 3c0 .552-.448 1-1 1h-2c-.552 0-1-.448-1-1s.448-1 1-1h2c.552 0 1 .448 1 1zm-10-13c0-1.103.897-2 2-2h.025c-.006.094-.025.184-.025.279v4.721c0 .338.022.671.059 1h-.059c-1.103 0-2-.897-2-2zm2 6h.525c.617 1.736 1.748 3.226 3.214 4.287-.724.338-1.285.954-1.555 1.713h-.184c-1.103 0-2-.897-2-2zm2.582 9.504c.195-.039.386-.094.574-.156.51.402 1.145.652 1.844.652h2c1.654 0 3-1.346 3-3 0-.367-.076-.715-.197-1.041.588-.052 1.158-.163 1.708-.323.415 1.958 1.941 3.474 3.907 3.867l.192.038-2.228 4.459h-8.764l-2.229-4.458zm9.8 6.496-2 4h-2.764l-2-4zm3.618 6 .001 10h-14.001v-10zm2 2h2.586l-1.293 1.293c-.109.109-.192.243-.241.391l-1.052 3.155zm10-4.586 1.586 1.586-6.586 6.586-1.586-1.586zm-8.813 12.187 1.212 1.212-1.818.606zm3.333.505-2.626-2.626.543-1.629 3.712 3.712zm1.894-3.106 6.586-6.586 1.586 1.586-6.586 6.586zm5-11 1.586-1.586 4.586 4.586-1.586 1.586zm5.344-4c1.788 0 3.242 1.454 3.242 3.242 0 .866-.337 1.681-.949 2.293l-.051.051-4.586-4.586.051-.051c.612-.612 1.427-.949 2.293-.949zm-7.8 3.628-4.372 4.372h-.87c.841-1.742 1.284-3.649 1.284-5.605v-.395h-2v.395c0 1.985-.541 3.911-1.558 5.605h-1.442c0-1.103-.897-2-2-2h-3.382l5.026-10.051 2.924.585c3.494.698 6.064 3.585 6.39 7.094zm-.971-11.848c-.103 1.528-.814 2.948-1.966 3.948-.93-.538-1.957-.935-3.06-1.156l-5.149-1.029c-1.191-.239-2.115-1.163-2.354-2.354l-.068-.34c1.889-1.06 3.352-2.783 4.086-4.85h.524c.541 0 1.055-.11 1.526-.306 1.062 2.95 3.474 5.216 6.461 6.087zm-18.663-27.78h3.352c5.141 0 9.324 4.183 9.324 9.324 0 .718-.086 1.427-.248 2.122-.704-5.413-5.246-9.446-10.752-9.446-5.507 0-10.049 4.034-10.752 9.447-.162-.695-.248-1.405-.248-2.123 0-5.141 4.183-9.324 9.324-9.324zm-19.324 28v3.764c0 .22-.349.302-.447.105l-1.935-3.869h-5.618v-18h12v18zm4.591 1.901c.813-.254 1.409-1.005 1.409-1.901v-1.058c1.72-.951 3.115-2.405 4-4.151v3.209c0 1.803 1.206 3.313 2.848 3.811l-3.809.761c-1.091.218-2.107.617-3.031 1.152-.592-.51-1.077-1.124-1.417-1.823zm5.967 14.099c-1.017-1.695-1.558-3.62-1.558-5.605v-.395h-2v.395c0 1.956.443 3.864 1.284 5.605h-5.284v-3.622c0-3.8 2.705-7.099 6.432-7.845l2.925-.584 5.025 10.051h-3.382c-1.103 0-2 .897-2 2zm3.442 14v-2h14.002v.954.01 1.036z"/></g></g></svg>