<svg id="_x33_0" enable-background="new 0 0 64 64" height="512" viewBox="0 0 64 64" width="512" xmlns="http://www.w3.org/2000/svg"><g><g><g><path d="m53.41 34c.71 0 1.36.29 1.83.76s.76 1.12.76 1.83c0 .26-.11.52-.29.7l-8.42 8.42c-.18.18-.44.29-.7.29-.71 0-1.36-.29-1.83-.76s-.76-1.12-.76-1.83c0-.26.11-.52.29-.7l.26-.26 7.97-7.97.19-.19c.18-.18.44-.29.7-.29z" fill="#ccd1d9"/></g><g><path d="m49.61 31.39 2.91 3.09-7.97 7.97-2.73-3.27z" fill="#aab2bd"/></g><g><path d="m45.25 26.75-.01.01-7.51 7.51-5.93-7.11 7.14-7.1z" fill="#aab2bd"/></g><g><path d="m35.85 49.99 2.62 2.04c-.39.06-.76.25-1.04.54l-1.43 1.43h-4l-.85-.71c-1.63-1.36-2.92-3.05-3.8-4.93-.88-1.87-1.35-3.94-1.35-6.06 0-3.42 1.22-6.73 3.45-9.32l.69-.81c.46 1.93 2.04 3.42 4.02 3.75v.01c-1.39 1.75-2.16 3.94-2.16 6.2 0 1.53.36 3.03 1.01 4.37.66 1.35 1.63 2.54 2.84 3.49z" fill="#aab2bd"/></g><g><path d="m37.73 34.27.47.57c-.87.72-1.98 1.16-3.2 1.16-.29 0-.57-.02-.84-.08-1.98-.33-3.56-1.82-4.02-3.75-.09-.38-.14-.77-.14-1.17 0-1.54.7-2.92 1.8-3.84z" fill="#969faa"/></g><g><path d="m45.25 26.75 4.36 4.64-7.79 7.79-3.62-4.34-.47-.57 7.51-7.51z" fill="#ccd1d9"/></g><g><path d="m38.94 20.06-7.14 7.1-.93-1.12-.32-.38c-.36-.43-.55-.96-.55-1.52v-.16c0-.63.25-1.23.69-1.67l1.31-1.31 2.31-2.31c.44-.44 1.04-.69 1.67-.69.65 0 1.27.27 1.72.74z" fill="#ccd1d9"/></g><g><path d="m50 50h6v6h-6z" fill="#d3a06c"/></g><g><path d="m62 57v4c0 .55-.45 1-1 1h-16c-.56 0-1-.45-1-1v-1.54c1.2-.69 2-1.98 2-3.46h4 6 5c.55 0 1 .45 1 1z" fill="#b27946"/></g><g><path d="m23 54v6l-1.84 1.23c-.76.5-1.65.77-2.56.77-2.11 0-3.96-1.44-4.47-3.5l-.13-.5 5-5 2.1.52z" fill="#fcd770"/></g><g><path d="m18.6 62h-16.6v-19c0 3.51 2.57 6.41 5.94 6.91v.01l6.06 8.08.13.5c.51 2.06 2.36 3.5 4.47 3.5z" fill="#ff826e"/></g><g><path d="m22 47.46c0 1.02-.1 2.05-.3 3.05l-.6 3.01-2.1-.52-3.46-7.5c.3-.77.46-1.62.46-2.5 0-3.87-3.13-7-7-7-1.64 0-3.14.56-4.33 1.51v-.01c1.23-3.09 3.84-5.5 7.13-6.44l.2-.06 5.43 5.43c.2.2.39.4.57.6 2.57 2.86 4 6.57 4 10.43z" fill="#ff826e"/></g><g><path d="m9 50c2.99 0 5.54-1.87 6.54-4.5l3.46 7.5-5 5-6.06-8.08v-.01c.34.06.7.09 1.06.09z" fill="#e6e9ed"/></g><g><path d="m45.41 54.59c.37.36.59.86.59 1.41 0 1.48-.8 2.77-2 3.46-.59.34-1.27.54-2 .54h-19v-6h9 4l1.43-1.43c.28-.29.65-.48 1.04-.54.11-.02.22-.03.33-.03.73 0 1.4.41 1.73 1.07l.47.93h3c.55 0 1.05.22 1.41.59z" fill="#e6e9ed"/></g><g><path d="m16 43c0 .88-.16 1.73-.46 2.5-1 2.63-3.55 4.5-6.54 4.5-.36 0-.72-.03-1.06-.09-3.37-.5-5.94-3.4-5.94-6.91 0-2.23 1.04-4.22 2.67-5.49 1.19-.95 2.69-1.51 4.33-1.51 3.87 0 7 3.13 7 7z" fill="#fcd770"/></g><g><circle cx="9" cy="43" fill="#ccd1d9" r="3"/></g><g><path d="m17.29 27.86 3.62 2.41c.21.14.42.26.65.36l-.67.44c-1.81 1.26-2.89 3.33-2.89 5.54v.42c-.18-.2-.37-.4-.57-.6l-5.43-5.43v-2.67c0-.44-.04-.88-.13-1.3l.13-.03 4-1 .06-.01c.13.76.57 1.43 1.23 1.87z" fill="#e6e9ed"/></g><g><path d="m30 24.14c0 .56.19 1.09.55 1.52l.32.38-2.87.96-.8 1.6c-.37.74-.93 1.34-1.6 1.75-.68.42-1.46.65-2.28.65-.61 0-1.21-.13-1.76-.37-.23-.1-.44-.22-.65-.36l-3.62-2.41c-.66-.44-1.1-1.11-1.23-1.87-.04-.18-.06-.36-.06-.54v-5.45c3.31 0 6-2.69 6-6 0-1.56-.59-2.97-1.57-4.03l.01-.01 5.81-5.27c.59.43 1.14.9 1.65 1.41 2.53 2.54 4.1 6.04 4.1 9.9v5l-1.31 1.31c-.44.44-.69 1.04-.69 1.67z" fill="#e6e9ed"/></g><g><path d="m18 2c-2.11 0-4.1.54-5.82 1.5-.98.54-1.88 1.22-2.67 2.01-.82.82-1.52 1.76-2.07 2.78-.92 1.7-1.44 3.64-1.44 5.71 0 2.6.84 5.12 2.4 7.2l2.2 2.93c.65.87 1.08 1.86 1.27 2.9l.13-.03 4-1 .06-.01c-.04-.18-.06-.36-.06-.54v-5.45c-3.31 0-6-2.69-6-6 0-1.23.37-2.38 1.01-3.33.7-1.05 1.73-1.87 2.94-2.31.64-.23 1.33-.36 2.05-.36.34 0 .67.03.99.09 1.36.22 2.56.9 3.44 1.88l.01-.01 5.81-5.27c-2.32-1.69-5.17-2.69-8.25-2.69z" fill="#cf9e76"/></g><g><path d="m16 8c.34 0 .67.03.99.09 1.36.22 2.56.9 3.44 1.88.98 1.06 1.57 2.47 1.57 4.03 0 3.31-2.69 6-6 6s-6-2.69-6-6c0-1.23.37-2.38 1.01-3.33.7-1.05 1.73-1.87 2.94-2.31.64-.23 1.33-.36 2.05-.36z" fill="#fcd770"/></g><g><circle cx="16" cy="14" fill="#ccd1d9" r="2"/></g></g><g><path d="m9 47c2.206 0 4-1.794 4-4s-1.794-4-4-4-4 1.794-4 4 1.794 4 4 4zm0-6c1.103 0 2 .897 2 2s-.897 2-2 2-2-.897-2-2 .897-2 2-2z"/><path d="m63 51v-2h-20v2h6v4h-2.184c-.414-1.161-1.514-2-2.816-2h-2.384l-.188-.376c-.501-1.002-1.509-1.624-2.629-1.624-.009 0-.017.002-.025.003l-2.313-1.799c-2.199-1.711-3.46-4.29-3.46-7.076 0-1.838.58-3.644 1.632-5.146.122.007.243.018.367.018 1.065 0 2.106-.288 3.017-.818l5.235 6.282c-.158.291-.252.616-.252.95 0 1.978 1.608 3.586 3.586 3.586.534 0 1.036-.208 1.414-.586l8.414-8.414c.373-.372.586-.888.586-1.414 0-1.978-1.608-3.586-3.586-3.586-.271 0-.533.054-.775.156l-14.211-15.098c-1.25-1.325-3.54-1.361-4.827-.072l-.601.6v-2.586c0-8.271-6.729-15-15-15-7.168 0-13 5.832-13 13 0 2.794.923 5.564 2.6 7.8l2.2 2.935c.773 1.03 1.2 2.309 1.2 3.599v1.946c-3.194 1.08-5.823 3.499-7.147 6.605-1.742 1.469-2.853 3.663-2.853 6.115v20h17.603c1.112 0 2.189-.326 3.114-.943l1.586-1.057h18.697c.341 0 .674-.035.996-.101v.101c0 1.103.897 2 2 2h16.004c1.103 0 2-.897 2-2v-4c0-1.103-.897-2-2-2h-4v-4zm-27.767-.219 1.444 1.123-1.095 1.096h-3.219l-.571-.477c-3.046-2.537-4.792-6.265-4.792-10.228 0-2.987 1.018-5.879 2.857-8.22.635 1.058 1.583 1.905 2.719 2.409-1.018 1.698-1.576 3.654-1.576 5.643 0 3.408 1.543 6.562 4.233 8.654zm-12.11 2.219-.86-.215.415-2.075c.214-1.07.322-2.165.322-3.254 0-4.002-1.419-7.779-4-10.782v-.068c0-1.877.92-3.638 2.442-4.696l.251-.166c.521.165 1.066.256 1.622.256 2.037 0 3.869-1.132 4.78-2.954l.614-1.229 1.577-.525c-.826 1.049-1.286 2.347-1.286 3.708 0 .3.029.592.072.88l-.385.449c-2.377 2.774-3.687 6.313-3.687 9.966 0 4.036 1.581 7.856 4.372 10.705zm-10.167-25.208 2.452-.613c.298.601.746 1.126 1.323 1.511l.099.066-1.537 1.537 1.414 1.414 1.82-1.82 1.224.816c-1.266 1.069-2.152 2.506-2.535 4.1l-4.216-4.217v-2.253c0-.182-.032-.361-.044-.541zm-3.876-14.792h-2.029c.103-1.135.376-2.222.798-3.232l1.839 1.226c-.298.624-.506 1.297-.608 2.006zm6.92-4c2.757 0 5 2.243 5 5s-2.243 5-5 5-5-2.243-5-5 2.243-5 5-5zm4.451-.399c-.68-.561-1.468-.995-2.326-1.269l.715-4.289c2.097.135 4.056.766 5.767 1.781zm-4.299-1.593c-.051-.001-.101-.008-.152-.008-.489 0-.966.051-1.427.147l-1.143-3.14c1.05-.482 2.183-.81 3.378-.939zm28.461 33.965-1.442-1.73 6.413-6.413 1.538 1.634zm-2.727-3.273-2.806-3.367 6.141-6.14 2.992 3.179zm-4.091-4.909-4.641-5.569 5.762-5.728 4.934 5.242zm-2.795 2.209c-2.206 0-4-1.794-4-4 0-.847.276-1.653.76-2.326l4.941 5.93c-.53.25-1.107.396-1.701.396zm20 1.586-8.414 8.414c-.875 0-1.586-.712-1.586-1.586l8.414-8.414c.875 0 1.586.712 1.586 1.586zm-19.985-17.187c.522-.522 1.45-.509 1.957.029l.573.609-5.676 5.643-.553-.663c-.204-.245-.316-.554-.316-.872v-.166c0-.358.146-.71.399-.964zm-4.015-3.399v4.586l-1.015 1.015c-.626.626-.985 1.493-.985 2.378v.166c0 .475.113.938.304 1.367l-2.013.671-.985 1.969c-.57 1.14-1.716 1.848-2.991 1.848-.663 0-1.304-.194-1.855-.562l-3.62-2.413c-.526-.351-.84-.938-.84-1.57v-4.535c3.387-.488 6-3.401 6-6.92 0-1.451-.444-2.8-1.203-3.919l4.494-4.085c2.874 2.387 4.709 5.985 4.709 10.004zm-19.33-10.981 1.023 2.814c-.717.386-1.354.897-1.894 1.498l-2.004-1.336c.763-1.165 1.74-2.174 2.875-2.976zm-2.47 15.582c-1.218-1.625-1.962-3.583-2.15-5.601h2.03c.441 3.059 2.861 5.479 5.92 5.92v4.299l-2.409.602c-.271-.819-.672-1.596-1.191-2.288zm2.515 11.528 5.013 5.013c2.755 2.754 4.272 6.418 4.272 10.314 0 .958-.095 1.921-.283 2.861l-.397 1.983-.613-.153-3.092-6.702c.248-.772.385-1.592.385-2.445 0-4.411-3.589-8-8-8-.623 0-1.226.079-1.808.214 1.183-1.417 2.749-2.503 4.523-3.085zm2.393 24.349-4.155-5.54c2.257-.27 4.223-1.482 5.502-3.232l2.345 5.08zm-5.108-19.478c3.309 0 6 2.691 6 6s-2.691 6-6 6-6-2.691-6-6 2.691-6 6-6zm-6 11.274c1.126 1.279 2.647 2.202 4.376 2.56l5.702 7.605.077.309c.214.856.628 1.613 1.168 2.253h-11.323zm17.607 12.119c-.595.397-1.288.607-2.004.607-1.647 0-3.075-1.108-3.493-2.696l4.197-4.197 2.693.673v4.684zm3.393-1.393v-4.028l12.41.028 1.726-1.725c.429-.428 1.233-.298 1.504.243l.74 1.482h3.62c.551 0 1 .448 1 1 0 1.654-1.346 3-3 3zm37 2-16.004.001.001-1.024c.955-.721 1.655-1.763 1.902-2.977h14.101zm-6-6h-4v-4h4z"/><path d="m16 17c1.654 0 3-1.346 3-3s-1.346-3-3-3-3 1.346-3 3 1.346 3 3 3zm0-4c.551 0 1 .448 1 1s-.449 1-1 1-1-.448-1-1 .449-1 1-1z"/><circle cx="28" cy="16" r="1"/></g></g></svg>